<svg width="4690" height="1296" viewBox="0 0 4690 1296" fill="none" xmlns="http://www.w3.org/2000/svg">
<g filter="url(#filter0_i_4951_1097)">
<rect width="4690" height="1296" fill="url(#paint0_linear_4951_1097)"/>
<g filter="url(#filter1_ddii_4951_1097)">
<path d="M2322 211C2293.85 211 2266.86 222.174 2246.96 242.064C2227.06 261.954 2215.88 288.93 2215.88 317.059C2215.98 335.43 2207.16 354.255 2190.68 362.371C2103.48 405.313 2039 494.471 2039 599.882V772C2039 794.091 2056.91 812 2079 812H2565C2587.09 812 2605 794.091 2605 772V599.882C2605 494.471 2540.52 405.313 2453.32 362.371C2436.84 354.255 2428.02 335.43 2428.12 317.059C2428.12 288.93 2416.94 261.954 2397.04 242.064C2377.14 222.174 2350.15 211 2322 211ZM2322 281.706C2331.38 281.706 2340.38 285.431 2347.01 292.061C2353.65 298.69 2357.38 307.683 2357.38 317.059C2357.38 326.435 2353.65 335.427 2347.01 342.057C2340.38 348.687 2331.38 352.412 2322 352.412C2312.62 352.412 2303.62 348.687 2296.99 342.057C2290.35 335.427 2286.62 326.435 2286.62 317.059C2286.62 307.683 2290.35 298.69 2296.99 292.061C2303.62 285.431 2312.62 281.706 2322 281.706ZM2322 423.118C2368.91 423.118 2413.9 441.741 2447.07 474.891C2480.24 508.041 2498.88 553.001 2498.88 599.882V701.294C2498.88 723.385 2480.97 741.294 2458.87 741.294H2185.12C2163.03 741.294 2145.12 723.385 2145.12 701.294V599.882C2145.12 553.001 2163.76 508.041 2196.93 474.891C2230.1 441.741 2275.09 423.118 2322 423.118Z" fill="white"/>
</g>
<path d="M1554.93 1132V913H1626.03C1641.23 913 1654.43 915.9 1665.63 921.7C1677.03 927.5 1685.83 935.7 1692.03 946.3C1698.43 956.7 1701.63 969 1701.63 983.2V1061.5C1701.63 1075.5 1698.43 1087.8 1692.03 1098.4C1685.83 1109 1677.03 1117.3 1665.63 1123.3C1654.43 1129.1 1641.23 1132 1626.03 1132H1554.93ZM1599.93 1090H1626.03C1635.23 1090 1642.63 1087.4 1648.23 1082.2C1653.83 1077 1656.63 1070.1 1656.63 1061.5V983.2C1656.63 974.8 1653.83 968 1648.23 962.8C1642.63 957.6 1635.23 955 1626.03 955H1599.93V1090ZM1806.21 1135C1791.61 1135 1778.81 1132.3 1767.81 1126.9C1757.01 1121.3 1748.61 1113.6 1742.61 1103.8C1736.81 1093.8 1733.91 1082.2 1733.91 1069V1030C1733.91 1016.8 1736.81 1005.3 1742.61 995.5C1748.61 985.5 1757.01 977.8 1767.81 972.4C1778.81 966.8 1791.61 964 1806.21 964C1820.81 964 1833.41 966.8 1844.01 972.4C1854.81 977.8 1863.11 985.5 1868.91 995.5C1874.91 1005.3 1877.91 1016.8 1877.91 1030V1060H1776.81V1069C1776.81 1079.4 1779.31 1087.3 1784.31 1092.7C1789.31 1097.9 1796.81 1100.5 1806.81 1100.5C1813.81 1100.5 1819.41 1099.3 1823.61 1096.9C1828.01 1094.5 1830.91 1091.2 1832.31 1087H1876.41C1872.81 1101.4 1864.61 1113 1851.81 1121.8C1839.21 1130.6 1824.01 1135 1806.21 1135ZM1835.01 1036.9V1029.4C1835.01 1019.2 1832.61 1011.4 1827.81 1006C1823.21 1000.6 1816.01 997.9 1806.21 997.9C1796.41 997.9 1789.01 1000.7 1784.01 1006.3C1779.21 1011.9 1776.81 1019.8 1776.81 1030V1034.5L1838.01 1033.9L1835.01 1036.9ZM1986.09 1135C1971.49 1135 1958.69 1132.3 1947.69 1126.9C1936.89 1121.3 1928.49 1113.6 1922.49 1103.8C1916.69 1093.8 1913.79 1082.2 1913.79 1069V1030C1913.79 1016.8 1916.69 1005.3 1922.49 995.5C1928.49 985.5 1936.89 977.8 1947.69 972.4C1958.69 966.8 1971.49 964 1986.09 964C2000.69 964 2013.29 966.8 2023.89 972.4C2034.69 977.8 2042.99 985.5 2048.79 995.5C2054.79 1005.3 2057.79 1016.8 2057.79 1030V1060H1956.69V1069C1956.69 1079.4 1959.19 1087.3 1964.19 1092.7C1969.19 1097.9 1976.69 1100.5 1986.69 1100.5C1993.69 1100.5 1999.29 1099.3 2003.49 1096.9C2007.89 1094.5 2010.79 1091.2 2012.19 1087H2056.29C2052.69 1101.4 2044.49 1113 2031.69 1121.8C2019.09 1130.6 2003.89 1135 1986.09 1135ZM2014.89 1036.9V1029.4C2014.89 1019.2 2012.49 1011.4 2007.69 1006C2003.09 1000.6 1995.89 997.9 1986.09 997.9C1976.29 997.9 1968.89 1000.7 1963.89 1006.3C1959.09 1011.9 1956.69 1019.8 1956.69 1030V1034.5L2017.89 1033.9L2014.89 1036.9ZM2095.48 1132V967H2138.98V998.5H2152.18L2138.98 1009C2138.98 995 2142.98 984 2150.98 976C2158.98 968 2169.78 964 2183.38 964C2199.38 964 2212.18 969.6 2221.78 980.8C2231.58 992 2236.48 1006.9 2236.48 1025.5V1132H2191.48V1030C2191.48 1021.4 2189.18 1014.8 2184.58 1010.2C2180.18 1005.4 2173.88 1003 2165.68 1003C2157.68 1003 2151.48 1005.4 2147.08 1010.2C2142.68 1014.8 2140.48 1021.4 2140.48 1030V1132H2095.48ZM2275.36 1132V913H2350.06C2365.46 913 2378.86 915.9 2390.26 921.7C2401.86 927.5 2410.76 935.6 2416.96 946C2423.36 956.4 2426.56 968.6 2426.56 982.6C2426.56 996.4 2423.36 1008.6 2416.96 1019.2C2410.56 1029.6 2401.66 1037.7 2390.26 1043.5C2378.86 1049.3 2365.46 1052.2 2350.06 1052.2H2320.36V1132H2275.36ZM2320.36 1011.7H2350.06C2359.66 1011.7 2367.26 1009.1 2372.86 1003.9C2378.66 998.5 2381.56 991.4 2381.56 982.6C2381.56 973.8 2378.66 966.8 2372.86 961.6C2367.26 956.2 2359.66 953.5 2350.06 953.5H2320.36V1011.7ZM2525.44 1135C2503.24 1135 2485.84 1129 2473.24 1117C2460.84 1105 2454.64 1088.6 2454.64 1067.8V967H2499.64V1067.5C2499.64 1076.7 2501.84 1083.8 2506.24 1088.8C2510.64 1093.6 2517.04 1096 2525.44 1096C2533.64 1096 2539.94 1093.6 2544.34 1088.8C2548.94 1083.8 2551.24 1076.7 2551.24 1067.5V967H2596.24V1067.8C2596.24 1088.8 2589.94 1105.3 2577.34 1117.3C2564.74 1129.1 2547.44 1135 2525.44 1135ZM2732.32 1132C2720.72 1132 2710.52 1129.6 2701.72 1124.8C2692.92 1119.8 2686.02 1112.9 2681.02 1104.1C2676.22 1095.3 2673.82 1085.1 2673.82 1073.5V953.5H2622.82V913H2718.82V1073.5C2718.82 1078.9 2720.42 1083.3 2723.62 1086.7C2727.02 1089.9 2731.42 1091.5 2736.82 1091.5H2784.82V1132H2732.32ZM2878.31 1135C2864.71 1135 2852.81 1132.9 2842.61 1128.7C2832.41 1124.3 2824.41 1118.3 2818.61 1110.7C2813.01 1103.1 2810.21 1094.2 2810.21 1084H2855.21C2855.21 1088.8 2857.31 1092.7 2861.51 1095.7C2865.91 1098.5 2871.51 1099.9 2878.31 1099.9H2891.51C2899.71 1099.9 2905.91 1098.4 2910.11 1095.4C2914.51 1092.4 2916.71 1088.2 2916.71 1082.8C2916.71 1077.8 2914.81 1074 2911.01 1071.4C2907.21 1068.6 2901.31 1066.7 2893.31 1065.7L2874.11 1063.3C2853.51 1060.7 2838.51 1055.7 2829.11 1048.3C2819.71 1040.9 2815.01 1029.6 2815.01 1014.4C2815.01 998.4 2820.51 986 2831.51 977.2C2842.51 968.4 2858.61 964 2879.81 964H2891.21C2911.41 964 2927.51 968.4 2939.51 977.2C2951.51 986 2957.51 997.8 2957.51 1012.6H2912.51C2912.51 1008.6 2910.51 1005.4 2906.51 1003C2902.71 1000.4 2897.61 999.1 2891.21 999.1H2879.81C2872.41 999.1 2867.01 1000.4 2863.61 1003C2860.21 1005.4 2858.51 1009.1 2858.51 1014.1C2858.51 1018.7 2860.01 1022.2 2863.01 1024.6C2866.21 1027 2871.21 1028.7 2878.01 1029.7L2898.71 1032.4C2919.51 1035 2934.91 1040.2 2944.91 1048C2955.11 1055.8 2960.21 1067.4 2960.21 1082.8C2960.21 1099.6 2954.41 1112.5 2942.81 1121.5C2931.21 1130.5 2914.11 1135 2891.51 1135H2878.31ZM3065.39 1135C3050.79 1135 3037.99 1132.3 3026.99 1126.9C3016.19 1121.3 3007.79 1113.6 3001.79 1103.8C2995.99 1093.8 2993.09 1082.2 2993.09 1069V1030C2993.09 1016.8 2995.99 1005.3 3001.79 995.5C3007.79 985.5 3016.19 977.8 3026.99 972.4C3037.99 966.8 3050.79 964 3065.39 964C3079.99 964 3092.59 966.8 3103.19 972.4C3113.99 977.8 3122.29 985.5 3128.09 995.5C3134.09 1005.3 3137.09 1016.8 3137.09 1030V1060H3035.99V1069C3035.99 1079.4 3038.49 1087.3 3043.49 1092.7C3048.49 1097.9 3055.99 1100.5 3065.99 1100.5C3072.99 1100.5 3078.59 1099.3 3082.79 1096.9C3087.19 1094.5 3090.09 1091.2 3091.49 1087H3135.59C3131.99 1101.4 3123.79 1113 3110.99 1121.8C3098.39 1130.6 3083.19 1135 3065.39 1135ZM3094.19 1036.9V1029.4C3094.19 1019.2 3091.79 1011.4 3086.99 1006C3082.39 1000.6 3075.19 997.9 3065.39 997.9C3055.59 997.9 3048.19 1000.7 3043.19 1006.3C3038.39 1011.9 3035.99 1019.8 3035.99 1030V1034.5L3097.19 1033.9L3094.19 1036.9Z" fill="white"/>
</g>
<defs>
<filter id="filter0_i_4951_1097" x="0" y="0" width="4690" height="1298" filterUnits="userSpaceOnUse" color-interpolation-filters="sRGB">
<feFlood flood-opacity="0" result="BackgroundImageFix"/>
<feBlend mode="normal" in="SourceGraphic" in2="BackgroundImageFix" result="shape"/>
<feColorMatrix in="SourceAlpha" type="matrix" values="0 0 0 0 0 0 0 0 0 0 0 0 0 0 0 0 0 0 127 0" result="hardAlpha"/>
<feOffset dy="2"/>
<feGaussianBlur stdDeviation="1.5"/>
<feComposite in2="hardAlpha" operator="arithmetic" k2="-1" k3="1"/>
<feColorMatrix type="matrix" values="0 0 0 0 0 0 0 0 0 1 0 0 0 0 0.728261 0 0 0 0.12 0"/>
<feBlend mode="normal" in2="shape" result="effect1_innerShadow_4951_1097"/>
</filter>
<filter id="filter1_ddii_4951_1097" x="2015" y="201" width="614" height="651" filterUnits="userSpaceOnUse" color-interpolation-filters="sRGB">
<feFlood flood-opacity="0" result="BackgroundImageFix"/>
<feColorMatrix in="SourceAlpha" type="matrix" values="0 0 0 0 0 0 0 0 0 0 0 0 0 0 0 0 0 0 127 0" result="hardAlpha"/>
<feOffset dy="8"/>
<feGaussianBlur stdDeviation="6"/>
<feComposite in2="hardAlpha" operator="out"/>
<feColorMatrix type="matrix" values="0 0 0 0 0 0 0 0 0 0 0 0 0 0 0 0 0 0 0.5 0"/>
<feBlend mode="normal" in2="BackgroundImageFix" result="effect1_dropShadow_4951_1097"/>
<feColorMatrix in="SourceAlpha" type="matrix" values="0 0 0 0 0 0 0 0 0 0 0 0 0 0 0 0 0 0 127 0" result="hardAlpha"/>
<feOffset dy="16"/>
<feGaussianBlur stdDeviation="12"/>
<feComposite in2="hardAlpha" operator="out"/>
<feColorMatrix type="matrix" values="0 0 0 0 0 0 0 0 0 0 0 0 0 0 0 0 0 0 0.45 0"/>
<feBlend mode="normal" in2="effect1_dropShadow_4951_1097" result="effect2_dropShadow_4951_1097"/>
<feBlend mode="normal" in="SourceGraphic" in2="effect2_dropShadow_4951_1097" result="shape"/>
<feColorMatrix in="SourceAlpha" type="matrix" values="0 0 0 0 0 0 0 0 0 0 0 0 0 0 0 0 0 0 127 0" result="hardAlpha"/>
<feOffset dx="-8" dy="-10"/>
<feGaussianBlur stdDeviation="8"/>
<feComposite in2="hardAlpha" operator="arithmetic" k2="-1" k3="1"/>
<feColorMatrix type="matrix" values="0 0 0 0 0.0156863 0 0 0 0 0.0784314 0 0 0 0 0.0627451 0 0 0 0.55 0"/>
<feBlend mode="normal" in2="shape" result="effect3_innerShadow_4951_1097"/>
<feColorMatrix in="SourceAlpha" type="matrix" values="0 0 0 0 0 0 0 0 0 0 0 0 0 0 0 0 0 0 127 0" result="hardAlpha"/>
<feOffset dx="6" dy="6"/>
<feGaussianBlur stdDeviation="2"/>
<feComposite in2="hardAlpha" operator="arithmetic" k2="-1" k3="1"/>
<feColorMatrix type="matrix" values="0 0 0 0 1 0 0 0 0 1 0 0 0 0 1 0 0 0 0.9 0"/>
<feBlend mode="normal" in2="effect3_innerShadow_4951_1097" result="effect4_innerShadow_4951_1097"/>
</filter>
<linearGradient id="paint0_linear_4951_1097" x1="3.29974e-05" y1="12.1052" x2="676.385" y2="2414.1" gradientUnits="userSpaceOnUse">
<stop offset="0.01" stop-color="#162F47"/>
<stop offset="0.505" stop-color="#57C7B6"/>
<stop offset="1" stop-color="#53C9ED"/>
</linearGradient>
</defs>
</svg>
